<svg width="472" height="367" viewBox="0 0 472 367" fill="none" xmlns="http://www.w3.org/2000/svg">
<path d="M102.216 58.6851C72.6491 78.4681 43.4567 81.0809 21.3753 114.301C-0.706126 147.522 -4.44875 181.862 4.53352 217.695C13.5158 253.528 48.3221 268.459 70.4035 289.361C92.4849 310.264 116.812 367 169.208 367C221.605 367 238.447 349.83 281.113 345.351C323.778 340.872 360.082 359.161 398.256 339.379C436.431 319.596 437.179 263.606 441.296 232.625C445.413 201.645 471.237 171.41 471.986 136.324C472.734 101.237 443.916 81.4542 418.092 64.6573C392.268 47.8605 385.157 16.8797 353.719 5.30862C322.281 -6.2625 300.574 5.30862 266.891 5.30862C233.207 5.30862 208.506 -6.63578 172.951 5.30862C137.396 17.253 131.782 38.9022 102.216 58.6851Z" fill="black"/>
</svg>
